<svg width="24" height="24" viewBox="0 0 24 24" fill="none" xmlns="http://www.w3.org/2000/svg">
<path fill-rule="evenodd" clip-rule="evenodd" d="M7.29303 9.29308C7.48056 9.10561 7.73487 9.00029 8.00003 9.00029C8.26519 9.00029 8.5195 9.10561 8.70703 9.29308L12 12.5861L15.293 9.29308C15.3853 9.19757 15.4956 9.12139 15.6176 9.06898C15.7396 9.01657 15.8709 8.98898 16.0036 8.98783C16.1364 8.98668 16.2681 9.01198 16.391 9.06226C16.5139 9.11254 16.6255 9.18679 16.7194 9.28069C16.8133 9.37458 16.8876 9.48623 16.9379 9.60913C16.9881 9.73202 17.0134 9.8637 17.0123 9.99648C17.0111 10.1293 16.9835 10.2605 16.9311 10.3825C16.8787 10.5045 16.8025 10.6148 16.707 10.7071L12.707 14.7071C12.5195 14.8946 12.2652 14.9999 12 14.9999C11.7349 14.9999 11.4806 14.8946 11.293 14.7071L7.29303 10.7071C7.10556 10.5196 7.00024 10.2652 7.00024 10.0001C7.00024 9.73492 7.10556 9.48061 7.29303 9.29308Z" fill="#0E73F6"/>
</svg>
