<svg width="16" height="16" viewBox="0 0 16 16" fill="none" xmlns="http://www.w3.org/2000/svg">
<g clip-path="url(#clip0_7_21583)">
<path d="M9 3.66667C9.73333 3.66667 10.3333 3.06667 10.3333 2.33333C10.3333 1.6 9.73333 1 9 1C8.26667 1 7.66667 1.6 7.66667 2.33333C7.66667 3.06667 8.26667 3.66667 9 3.66667ZM6.53333 5.93333L4.66667 15.3333H6.06667L7.26667 10L8.66667 11.3333V15.3333H10V10.3333L8.6 9L9 7C9.86667 8 11.2 8.66667 12.6667 8.66667V7.33333C11.4 7.33333 10.3333 6.66667 9.8 5.73333L9.13333 4.66667C8.76 4.07333 8.01333 3.83333 7.36667 4.10667L4 5.53333V8.66667H5.33333V6.4L6.53333 5.93333Z" fill="#6E8BB7"/>
</g>
<defs>
<clipPath id="clip0_7_21583">
<rect width="16" height="16" fill="white"/>
</clipPath>
</defs>
</svg>
