<svg width="16" height="16" viewBox="0 0 16 16" fill="none" xmlns="http://www.w3.org/2000/svg">
<g clip-path="url(#clip0_7_21280)">
<path d="M3.33338 4.00008H12.6667C13.0334 4.00008 13.3334 3.70008 13.3334 3.33341C13.3334 2.96675 13.0334 2.66675 12.6667 2.66675H3.33338C2.96672 2.66675 2.66672 2.96675 2.66672 3.33341C2.66672 3.70008 2.96672 4.00008 3.33338 4.00008ZM13.44 5.20008C13.38 4.89341 13.1067 4.66675 12.7867 4.66675H3.21338C2.89338 4.66675 2.62005 4.89341 2.56005 5.20008L1.89338 8.53341C1.81338 8.94675 2.12672 9.33341 2.54672 9.33341H2.66672V12.6667C2.66672 13.0334 2.96672 13.3334 3.33338 13.3334H8.66672C9.03338 13.3334 9.33338 13.0334 9.33338 12.6667V9.33341H12V12.6667C12 13.0334 12.3 13.3334 12.6667 13.3334C13.0334 13.3334 13.3334 13.0334 13.3334 12.6667V9.33341H13.4534C13.8734 9.33341 14.1867 8.94675 14.1067 8.53341L13.44 5.20008ZM8.00005 12.0001H4.00005V9.33341H8.00005V12.0001Z" fill="#6E8BB7"/>
</g>
<defs>
<clipPath id="clip0_7_21280">
<rect width="16" height="16" fill="white"/>
</clipPath>
</defs>
</svg>
