<svg width="32" height="32" viewBox="0 0 32 32" fill="none" xmlns="http://www.w3.org/2000/svg">
<circle cx="16" cy="16" r="16" fill="url(#paint0_linear_1261_1136)"/>
<path fill-rule="evenodd" clip-rule="evenodd" d="M17.1107 23.2145C19.2534 23.2145 20.838 22.3305 21.8645 20.5625C22.6215 19.251 23 17.6502 23 15.7601C23 15.0143 22.9102 14.23 22.7306 13.4071C22.5509 12.5842 22.2141 11.8191 21.7201 11.1119C21.1043 10.2376 20.2991 9.63647 19.3047 9.30859C18.7209 9.11572 17.9896 9.01286 17.1107 9H11V23.2145H17.1107Z" fill="white"/>
<mask id="mask0_1261_1136" style="mask-type:luminance" maskUnits="userSpaceOnUse" x="11" y="9" width="12" height="15">
<path fill-rule="evenodd" clip-rule="evenodd" d="M17.1107 23.2145C19.2534 23.2145 20.838 22.3305 21.8645 20.5625C22.6215 19.251 23 17.6502 23 15.7601C23 15.0143 22.9102 14.23 22.7306 13.4071C22.5509 12.5842 22.2141 11.8191 21.7201 11.1119C21.1043 10.2376 20.2991 9.63647 19.3047 9.30859C18.7209 9.11572 17.9896 9.01286 17.1107 9H11V23.2145H17.1107Z" fill="white"/>
</mask>
<g mask="url(#mask0_1261_1136)">
<path fill-rule="evenodd" clip-rule="evenodd" d="M13.8772 20.7455V11.4685H16.6102C17.9574 11.4685 18.8571 11.8559 19.3094 12.6305C19.7617 13.4052 19.9879 14.5158 19.9879 15.9624C19.9879 17.0103 19.8371 17.9136 19.5356 18.6722C18.9839 20.0544 18.0087 20.7455 16.6102 20.7455H13.8772Z" fill="#0E73F6"/>
</g>
<defs>
<linearGradient id="paint0_linear_1261_1136" x1="-6.18475e-06" y1="32" x2="32" y2="-1.38141e-05" gradientUnits="userSpaceOnUse">
<stop stop-color="#0974E9"/>
<stop offset="1" stop-color="#3593F9"/>
</linearGradient>
</defs>
</svg>
