<svg width="36" height="36" viewBox="0 0 36 36" fill="none" xmlns="http://www.w3.org/2000/svg">
<rect width="36" height="36" rx="6" fill="#0E73F6"/>
<g clip-path="url(#clip0_1261_1143)">
<path d="M23.8333 10.5H12.1667C11.25 10.5 10.5 11.25 10.5 12.1667V23.8333C10.5 24.75 11.25 25.5 12.1667 25.5H23.8333C24.75 25.5 25.5 24.75 25.5 23.8333V12.1667C25.5 11.25 24.75 10.5 23.8333 10.5ZM14.6667 22.1667C14.2083 22.1667 13.8333 21.7917 13.8333 21.3333V18.8333C13.8333 18.375 14.2083 18 14.6667 18C15.125 18 15.5 18.375 15.5 18.8333V21.3333C15.5 21.7917 15.125 22.1667 14.6667 22.1667ZM18 22.1667C17.5417 22.1667 17.1667 21.7917 17.1667 21.3333V20.5C17.1667 20.0417 17.5417 19.6667 18 19.6667C18.4583 19.6667 18.8333 20.0417 18.8333 20.5V21.3333C18.8333 21.7917 18.4583 22.1667 18 22.1667ZM18 18C17.5417 18 17.1667 17.625 17.1667 17.1667C17.1667 16.7083 17.5417 16.3333 18 16.3333C18.4583 16.3333 18.8333 16.7083 18.8333 17.1667C18.8333 17.625 18.4583 18 18 18ZM21.3333 22.1667C20.875 22.1667 20.5 21.7917 20.5 21.3333V14.6667C20.5 14.2083 20.875 13.8333 21.3333 13.8333C21.7917 13.8333 22.1667 14.2083 22.1667 14.6667V21.3333C22.1667 21.7917 21.7917 22.1667 21.3333 22.1667Z" fill="white"/>
</g>
<defs>
<clipPath id="clip0_1261_1143">
<rect width="20" height="20" fill="white" transform="translate(8 8)"/>
</clipPath>
</defs>
</svg>
