<svg width="36" height="36" viewBox="0 0 36 36" fill="none" xmlns="http://www.w3.org/2000/svg">
<rect width="36" height="36" fill="white"/>
<g clip-path="url(#clip0_1261_1163)">
<path d="M24.1999 18.8248L24.1916 18.8415C24.2249 18.5665 24.2583 18.2832 24.2583 17.9998C24.2583 17.7165 24.2333 17.4498 24.1999 17.1748L24.2083 17.1915L26.2416 15.5915L24.2166 12.0748L21.8249 13.0415L21.8333 13.0498C21.3999 12.7165 20.9249 12.4332 20.4083 12.2165H20.4166L20.0333 9.6665H15.9749L15.6083 12.2248H15.6166C15.0999 12.4415 14.6249 12.7248 14.1916 13.0582L14.1999 13.0498L11.7999 12.0748L9.7666 15.5915L11.7999 17.1915L11.8083 17.1748C11.7749 17.4498 11.7499 17.7165 11.7499 17.9998C11.7499 18.2832 11.7749 18.5665 11.8166 18.8415L11.8083 18.8248L10.0583 20.1998L9.78327 20.4165L11.8083 23.9165L14.2083 22.9582L14.1916 22.9248C14.6333 23.2665 15.1083 23.5498 15.6333 23.7665H15.6083L15.9833 26.3332H20.0249C20.0249 26.3332 20.0499 26.1832 20.0749 25.9832L20.3916 23.7748H20.3833C20.8999 23.5582 21.3833 23.2748 21.8249 22.9332L21.8083 22.9665L24.2083 23.9248L26.2333 20.4248C26.2333 20.4248 26.1166 20.3248 25.9583 20.2082L24.1999 18.8248ZM17.9999 20.9165C16.3916 20.9165 15.0833 19.6082 15.0833 17.9998C15.0833 16.3915 16.3916 15.0832 17.9999 15.0832C19.6083 15.0832 20.9166 16.3915 20.9166 17.9998C20.9166 19.6082 19.6083 20.9165 17.9999 20.9165Z" fill="#6E8BB7"/>
</g>
<defs>
<clipPath id="clip0_1261_1163">
<rect width="20" height="20" fill="white" transform="translate(8 8)"/>
</clipPath>
</defs>
</svg>
