<svg width="20" height="20" viewBox="0 0 20 20" fill="none" xmlns="http://www.w3.org/2000/svg">
<path d="M12.8125 2.125H11.5907C11.359 1.47025 10.7335 1 10 1C9.2665 1 8.641 1.47025 8.40813 2.125H7.1875C6.877 2.125 6.625 2.377 6.625 2.6875V4.9375C6.625 5.248 6.877 5.5 7.1875 5.5H12.8125C13.123 5.5 13.375 5.248 13.375 4.9375V2.6875C13.375 2.377 13.123 2.125 12.8125 2.125Z" fill="#007AFF"/>
<path d="M15.625 3.25H14.5V4.9375C14.5 5.86788 13.7429 6.625 12.8125 6.625H7.1875C6.25712 6.625 5.5 5.86788 5.5 4.9375V3.25H4.375C3.75512 3.25 3.25 3.75512 3.25 4.375V17.875C3.25 18.5061 3.74388 19 4.375 19H15.625C16.2561 19 16.75 18.5061 16.75 17.875V4.375C16.75 3.74388 16.2561 3.25 15.625 3.25ZM9.83575 13.2108L7.58575 15.4608C7.4755 15.5699 7.3315 15.625 7.1875 15.625C7.0435 15.625 6.8995 15.5699 6.78925 15.4608L5.66425 14.3358C5.44488 14.1164 5.44488 13.7598 5.66425 13.5404C5.88362 13.321 6.24025 13.321 6.45963 13.5404L7.1875 14.2671L9.03925 12.4154C9.25863 12.196 9.61525 12.196 9.83463 12.4154C10.054 12.6348 10.0551 12.9902 9.83575 13.2108ZM9.83575 8.71075L7.58575 10.9608C7.4755 11.0699 7.3315 11.125 7.1875 11.125C7.0435 11.125 6.8995 11.0699 6.78925 10.9608L5.66425 9.83575C5.44488 9.61637 5.44488 9.25975 5.66425 9.04037C5.88362 8.821 6.24025 8.821 6.45963 9.04037L7.1875 9.76713L9.03925 7.91537C9.25863 7.696 9.61525 7.696 9.83463 7.91537C10.054 8.13475 10.0551 8.49025 9.83575 8.71075ZM13.9375 14.5H11.6875C11.377 14.5 11.125 14.248 11.125 13.9375C11.125 13.627 11.377 13.375 11.6875 13.375H13.9375C14.248 13.375 14.5 13.627 14.5 13.9375C14.5 14.248 14.248 14.5 13.9375 14.5ZM13.9375 10H11.6875C11.377 10 11.125 9.748 11.125 9.4375C11.125 9.127 11.377 8.875 11.6875 8.875H13.9375C14.248 8.875 14.5 9.127 14.5 9.4375C14.5 9.748 14.248 10 13.9375 10Z" fill="#007AFF"/>
</svg>
