<svg width="20" height="20" viewBox="0 0 20 20" fill="none" xmlns="http://www.w3.org/2000/svg">
<path fill-rule="evenodd" clip-rule="evenodd" d="M9.99169 1.66675C5.39169 1.66675 1.66669 5.40008 1.66669 10.0001C1.66669 14.6001 5.39169 18.3334 9.99169 18.3334C14.6 18.3334 18.3334 14.6001 18.3334 10.0001C18.3334 5.40008 14.6 1.66675 9.99169 1.66675ZM10 16.6667C6.31669 16.6667 3.33335 13.6834 3.33335 10.0001C3.33335 6.31675 6.31669 3.33341 10 3.33341C13.6834 3.33341 16.6667 6.31675 16.6667 10.0001C16.6667 13.6834 13.6834 16.6667 10 16.6667ZM9.16669 5.83341H10.4167V10.2084L14.1667 12.4334L13.5417 13.4584L9.16669 10.8334V5.83341Z" fill="#6E8BB7"/>
</svg>
