<svg width="11" height="12" viewBox="0 0 11 12" fill="none" xmlns="http://www.w3.org/2000/svg">
<path d="M10.7501 0.758431C10.4251 0.433431 9.9001 0.433431 9.5751 0.758431L5.5001 4.8251L1.4251 0.750098C1.1001 0.425098 0.575098 0.425098 0.250098 0.750098C-0.0749023 1.0751 -0.0749023 1.6001 0.250098 1.9251L4.3251 6.0001L0.250098 10.0751C-0.0749023 10.4001 -0.0749023 10.9251 0.250098 11.2501C0.575098 11.5751 1.1001 11.5751 1.4251 11.2501L5.5001 7.1751L9.5751 11.2501C9.9001 11.5751 10.4251 11.5751 10.7501 11.2501C11.0751 10.9251 11.0751 10.4001 10.7501 10.0751L6.6751 6.0001L10.7501 1.9251C11.0668 1.60843 11.0668 1.0751 10.7501 0.758431Z" fill="#F76659"/>
</svg>
